<svg width="11" height="7" viewBox="0 0 11 7" fill="none" xmlns="http://www.w3.org/2000/svg">
<path d="M6.33742 1.02789L10.8374 5.52789C10.889 5.57943 10.9299 5.64062 10.9578 5.70796C10.9857 5.77531 11 5.8475 11 5.92039C11 5.99329 10.9857 6.06547 10.9578 6.13281C10.9299 6.20016 10.889 6.26134 10.8374 6.31288L10.3134 6.83688C10.2094 6.94069 10.0684 6.99899 9.92142 6.99899C9.77444 6.99899 9.63346 6.94069 9.52942 6.83688L5.94942 3.27389L2.36942 6.83789C2.26537 6.9417 2.12439 7 1.97742 7C1.83044 7 1.68946 6.9417 1.58542 6.83789L1.06142 6.31389C1.00986 6.26235 0.968967 6.20117 0.941066 6.13382C0.913165 6.06647 0.898804 5.99428 0.898804 5.92139C0.898804 5.84849 0.913165 5.77632 0.941066 5.70897C0.968967 5.64162 1.00986 5.58042 1.06142 5.52888L5.56142 1.02888C5.61295 0.977332 5.67414 0.93644 5.74149 0.908539C5.80884 0.880638 5.88102 0.86628 5.95392 0.86628C6.02681 0.86628 6.09899 0.880638 6.16634 0.908539C6.23369 0.93644 6.29488 0.977332 6.34642 1.02888L6.33742 1.02789Z" fill="#0288D1"/>
</svg>
